<svg width="20" height="20" viewBox="0 0 20 20" fill="none" xmlns="http://www.w3.org/2000/svg">
<path d="M7.64172 12.9831C7.48338 12.9831 7.32505 12.9248 7.20005 12.7998C6.95838 12.5581 6.95838 12.1581 7.20005 11.9165L11.9167 7.1998C12.1584 6.95814 12.5584 6.95814 12.8 7.1998C13.0417 7.44147 13.0417 7.84147 12.8 8.08314L8.08338 12.7998C7.96671 12.9248 7.80005 12.9831 7.64172 12.9831Z" fill="#141414"/>
<path d="M12.3584 12.9831C12.2 12.9831 12.0417 12.9248 11.9167 12.7998L7.20005 8.08314C6.95838 7.84147 6.95838 7.44147 7.20005 7.1998C7.44172 6.95814 7.84172 6.95814 8.08338 7.1998L12.8 11.9165C13.0417 12.1581 13.0417 12.5581 12.8 12.7998C12.675 12.9248 12.5167 12.9831 12.3584 12.9831Z" fill="#141414"/>
</svg>
