<svg width="10" height="10" viewBox="0 0 10 10" fill="none" xmlns="http://www.w3.org/2000/svg">
<path d="M6.88534 1.15242L6.04201 1.99575L5.94409 1.89867C5.64409 1.59742 5.12201 1.59534 4.81618 1.90159C4.66728 2.05092 4.58366 2.2532 4.58366 2.46409C4.58366 2.67497 4.66728 2.87725 4.81618 3.02659L4.91368 3.12409L1.56951 6.46784C1.45019 6.58852 1.36054 6.73527 1.30761 6.89651C1.25468 7.05775 1.23993 7.22909 1.26451 7.397L1.02409 7.63867C0.771175 7.88034 0.772009 8.31617 1.02409 8.55784C1.26493 8.81075 1.70118 8.81075 1.94368 8.55784L2.18409 8.317C2.35211 8.34177 2.52358 8.32715 2.68498 8.27429C2.84638 8.22143 2.99328 8.13178 3.11409 8.01242L6.45826 4.66867L6.55534 4.76575C6.70486 4.91533 6.90767 4.99937 7.11915 4.99941C7.33064 4.99945 7.53348 4.91548 7.68305 4.76596C7.83262 4.61645 7.91667 4.41364 7.91671 4.20215C7.91675 3.99067 7.83277 3.78783 7.68326 3.63825L7.58659 3.54034L8.42993 2.697C8.85451 2.2895 8.85409 1.55867 8.42909 1.152C8.32778 1.0507 8.20746 0.970388 8.07504 0.915689C7.94262 0.86099 7.8007 0.832976 7.65743 0.833254C7.37784 0.833254 7.09784 0.939921 6.88534 1.15242ZM6.18868 2.43867L7.17993 1.447C7.43451 1.19242 7.87993 1.19242 8.13534 1.44825C8.39701 1.69909 8.39743 2.15117 8.13534 2.40242L7.14409 3.39367C7.1247 3.41299 7.10932 3.43594 7.09882 3.46122C7.08833 3.48649 7.08292 3.51359 7.08292 3.54096C7.08292 3.56833 7.08833 3.59543 7.09882 3.62071C7.10932 3.64598 7.1247 3.66894 7.14409 3.68825L7.38826 3.93284C7.45831 4.00451 7.49728 4.10091 7.49672 4.20113C7.49616 4.30135 7.45613 4.39731 7.38529 4.4682C7.31445 4.5391 7.21852 4.57921 7.1183 4.57984C7.01808 4.58048 6.92166 4.54158 6.84993 4.47159L5.11076 2.73242C5.07555 2.69693 5.04768 2.65484 5.02874 2.60856C5.00981 2.56229 5.00018 2.51273 5.00041 2.46274C5.00065 2.41274 5.01073 2.36328 5.03009 2.31718C5.04946 2.27108 5.07772 2.22925 5.11326 2.19409C5.1851 2.12437 5.28127 2.08537 5.38138 2.08537C5.48149 2.08537 5.57767 2.12437 5.64951 2.19409L5.89409 2.43867C5.93321 2.47763 5.98618 2.4995 6.04138 2.4995C6.09659 2.4995 6.14955 2.47763 6.18868 2.43867ZM1.31868 7.93326L1.63826 7.61325C1.66388 7.58749 1.68235 7.5555 1.69185 7.52043C1.70135 7.48536 1.70154 7.44842 1.69243 7.41325C1.66129 7.29926 1.66077 7.17906 1.69091 7.0648C1.72105 6.95053 1.78079 6.84624 1.86409 6.76242L5.20868 3.41867L6.16368 4.37367L2.81951 7.71784C2.65034 7.887 2.40743 7.95117 2.16909 7.8895C2.13386 7.88035 2.09685 7.88053 2.06171 7.89003C2.02656 7.89953 1.9945 7.91802 1.96868 7.94367L1.64951 8.26367C1.62978 8.2855 1.60576 8.30303 1.57894 8.31514C1.55213 8.32726 1.5231 8.33371 1.49368 8.33409C1.31368 8.33409 1.14993 8.09576 1.31868 7.93326Z" fill="#3A3A3A"/>
</svg>
