<svg width="18" height="14" viewBox="0 0 18 14" fill="none" xmlns="http://www.w3.org/2000/svg">
<path d="M1.12852 0.25708H16.868C17.4902 0.25708 17.9965 0.76333 17.9965 1.3856C17.9965 2.00786 17.4902 2.51411 16.868 2.51411H1.12852C0.50625 2.51763 0 2.01138 0 1.3856C0 0.76333 0.50625 0.25708 1.12852 0.25708ZM3.97617 5.87153H14.0203C14.6426 5.87153 15.1488 6.37778 15.1488 7.00005C15.1488 7.62231 14.6426 8.12856 14.0203 8.12856H3.97617C3.35391 8.12856 2.84766 7.62231 2.84766 7.00005C2.84766 6.37778 3.35391 5.87153 3.97617 5.87153ZM6.82383 11.4825H11.1727C11.7949 11.4825 12.3012 11.9887 12.3012 12.611C12.3012 13.2333 11.7949 13.7395 11.1727 13.7395H6.82383C6.20156 13.7395 5.69531 13.2333 5.69531 12.611C5.69531 11.9887 6.20156 11.4825 6.82383 11.4825Z" fill="white"/>
</svg>
