<svg width="44" height="44" viewBox="0 0 44 44" fill="none" xmlns="http://www.w3.org/2000/svg">
<path d="M4.72997 34.8517L4.6933 34.8883C4.1983 33.8067 3.88663 32.5783 3.7583 31.2217C3.88663 32.56 4.23497 33.77 4.72997 34.8517Z" fill="#EEEEEE"/>
<path d="M16.5001 19.0299C18.9099 19.0299 20.8634 17.0764 20.8634 14.6666C20.8634 12.2568 18.9099 10.3032 16.5001 10.3032C14.0902 10.3032 12.1367 12.2568 12.1367 14.6666C12.1367 17.0764 14.0902 19.0299 16.5001 19.0299Z" fill="#EEEEEE"/>
<path d="M29.6817 3.6665H14.3184C7.64508 3.6665 3.66675 7.64484 3.66675 14.3182V29.6815C3.66675 31.6798 4.01508 33.4215 4.69341 34.8882C6.27008 38.3715 9.64341 40.3332 14.3184 40.3332H29.6817C36.3551 40.3332 40.3334 36.3548 40.3334 29.6815V25.4832V14.3182C40.3334 7.64484 36.3551 3.6665 29.6817 3.6665ZM37.3451 22.9165C35.9151 21.6882 33.6051 21.6882 32.1751 22.9165L24.5484 29.4615C23.1184 30.6898 20.8084 30.6898 19.3784 29.4615L18.7551 28.9482C17.4534 27.8115 15.3817 27.7015 13.9151 28.6915L7.05841 33.2932C6.65508 32.2665 6.41675 31.0748 6.41675 29.6815V14.3182C6.41675 9.14817 9.14841 6.4165 14.3184 6.4165H29.6817C34.8517 6.4165 37.5834 9.14817 37.5834 14.3182V23.1182L37.3451 22.9165Z" fill="#EEEEEE"/>
</svg>
