<svg width="20" height="20" viewBox="0 0 20 20" fill="none" xmlns="http://www.w3.org/2000/svg">
<path fill-rule="evenodd" clip-rule="evenodd" d="M10.7917 10.9551H16.2277C16.4322 10.9557 16.6282 11.0372 16.7728 11.1819C16.9174 11.3265 16.9989 11.5225 16.9995 11.727V12.4348C16.9989 12.6393 16.9174 12.8353 16.7728 12.9799C16.6282 13.1245 16.4322 13.206 16.2277 13.2067H10.7917C10.5872 13.206 10.3913 13.1245 10.2468 12.9799C10.1022 12.8352 10.0208 12.6393 10.0203 12.4348V11.727C10.0208 11.5225 10.1022 11.3265 10.2468 11.1819C10.3913 11.0373 10.5872 10.9557 10.7917 10.9551ZM3.789 13.8164L2.82846 14.0739C2.7417 14.0973 2.66776 14.1541 2.62281 14.232C2.57786 14.3098 2.56557 14.4022 2.58861 14.4891L3.85971 19.2317C3.88304 19.3185 3.93989 19.3924 4.01776 19.4373C4.09562 19.4822 4.18812 19.4944 4.27494 19.4711L5.23431 19.2137C5.32107 19.1903 5.39501 19.1334 5.43996 19.0556C5.48491 18.9778 5.4972 18.8853 5.47416 18.7985L4.20424 14.0559C4.1809 13.9691 4.12405 13.8951 4.04619 13.8502C3.96832 13.8053 3.87582 13.7932 3.789 13.8164ZM5.87377 18.1379C6.7765 17.8039 7.97142 18.118 9.09564 18.4137C10.1038 18.6785 11.0488 18.927 11.4992 18.6379C13.5347 17.3321 15.9488 16.0684 18.0706 14.8438C18.2464 14.7411 18.3746 14.5733 18.4274 14.3767C18.4801 14.1801 18.4531 13.9706 18.3523 13.7938C18.1359 13.4188 17.6624 13.3317 17.2902 13.5203C16.8445 13.7473 11.8828 16.2379 11.9167 16.2938C11.6402 16.4543 11.3119 16.5004 11.0019 16.4223C10.1609 16.2531 9.15111 15.9266 8.30228 15.6992C8.23296 15.6785 8.17445 15.6316 8.13917 15.5684C8.10389 15.5052 8.09462 15.4308 8.11333 15.3609C8.13204 15.291 8.17725 15.2311 8.23937 15.194C8.30149 15.1569 8.37562 15.1455 8.44603 15.1621L11.1288 15.8809C11.3004 15.9249 11.4824 15.8996 11.6354 15.8102C11.7883 15.7209 11.8999 15.5749 11.9458 15.4038C11.9918 15.2327 11.9684 15.0504 11.8807 14.8965C11.7931 14.7426 11.6482 14.6295 11.4777 14.5817L8.264 13.7223C6.56908 13.268 6.79994 12.9852 4.85346 14.3328L5.87377 18.1406V18.1379ZM3.44017 14.4344C3.52498 14.4114 3.61472 14.414 3.69802 14.442C3.78132 14.47 3.85445 14.5221 3.90814 14.5917C3.96183 14.6612 3.99367 14.7452 3.99964 14.8329C4.00561 14.9205 3.98544 15.008 3.94167 15.0842C3.89791 15.1604 3.83252 15.2219 3.75378 15.261C3.67505 15.3 3.5865 15.3148 3.49935 15.3035C3.4122 15.2922 3.33037 15.2552 3.26421 15.1974C3.19805 15.1396 3.15053 15.0634 3.12767 14.9785C3.09708 14.8649 3.1128 14.7439 3.17139 14.6418C3.22997 14.5398 3.32664 14.4652 3.44017 14.4344ZM2.59447 9.41096C2.45782 9.51648 2.28485 9.56339 2.11362 9.54138C1.94238 9.51936 1.7869 9.43023 1.68139 9.29358C1.57587 9.15693 1.52896 8.98396 1.55097 8.81273C1.57298 8.64149 1.66212 8.48601 1.79877 8.38049L3.20697 7.29768C3.3223 7.2087 3.46414 7.16096 3.60981 7.16209C3.75547 7.16322 3.89655 7.21316 4.01049 7.30393L5.41088 8.38049C5.54753 8.48601 5.63666 8.64149 5.65867 8.81273C5.68069 8.98396 5.63378 9.15693 5.52826 9.29358C5.42274 9.43023 5.26726 9.51936 5.09603 9.54138C4.92479 9.56339 4.75182 9.51648 4.61517 9.41096L4.25775 9.13752V11.6055C4.25358 11.7759 4.18296 11.9379 4.06097 12.057C3.93898 12.176 3.77528 12.2426 3.60482 12.2426C3.43437 12.2426 3.27067 12.176 3.14868 12.057C3.02668 11.9379 2.95606 11.7759 2.95189 11.6055V9.13557L2.59447 9.40901V9.41096ZM5.87572 5.04495L6.23353 4.77151V7.24143C6.23353 7.41455 6.3023 7.58057 6.42472 7.70298C6.54713 7.82539 6.71315 7.89416 6.88627 7.89416C7.05938 7.89416 7.22541 7.82539 7.34782 7.70298C7.47023 7.58057 7.539 7.41455 7.539 7.24143V4.76995L7.89642 5.04338C8.03302 5.1489 8.20594 5.19583 8.37714 5.17386C8.54834 5.15188 8.7038 5.06279 8.80931 4.9262C8.91483 4.7896 8.96176 4.61668 8.93979 4.44548C8.91781 4.27428 8.82872 4.11882 8.69213 4.01331L7.29213 2.93792C7.17812 2.84727 7.03703 2.79744 6.89138 2.79637C6.74573 2.79531 6.60393 2.84308 6.48861 2.93206L5.08041 4.01487C4.94381 4.12038 4.85473 4.27584 4.83275 4.44704C4.81077 4.61824 4.8577 4.79116 4.96322 4.92776C5.06874 5.06436 5.2242 5.15344 5.3954 5.17542C5.5666 5.1974 5.73951 5.15046 5.87611 5.04495H5.87572ZM13.5097 0.517212C14.0825 0.517212 14.6424 0.687065 15.1187 1.00529C15.5949 1.32352 15.9661 1.77583 16.1853 2.30502C16.4045 2.83421 16.4619 3.41652 16.3502 3.97831C16.2384 4.54009 15.9626 5.05613 15.5576 5.46115C15.1525 5.86618 14.6365 6.142 14.0747 6.25375C13.5129 6.3655 12.9306 6.30815 12.4014 6.08895C11.8722 5.86975 11.4199 5.49855 11.1017 5.02229C10.7835 4.54603 10.6136 3.9861 10.6136 3.41331C10.6136 2.64521 10.9187 1.90858 11.4619 1.36546C12.005 0.822335 12.7416 0.517212 13.5097 0.517212ZM12.4913 4.0676C12.4781 4.53635 12.7437 4.94729 13.1972 5.09338V5.23792C13.1972 5.3208 13.2301 5.40028 13.2887 5.45889C13.3473 5.51749 13.4268 5.55041 13.5097 5.55041C13.5926 5.55041 13.6721 5.51749 13.7307 5.45889C13.7893 5.40028 13.8222 5.3208 13.8222 5.23792V5.09338C14.0537 5.01878 14.2509 4.86399 14.3783 4.65688C14.5058 4.44978 14.5551 4.20397 14.5174 3.96372C14.4798 3.72348 14.3575 3.50458 14.1728 3.34645C13.988 3.18832 13.7529 3.10135 13.5097 3.1012C13.4305 3.10089 13.3531 3.07679 13.2877 3.03203C13.2223 2.98727 13.1719 2.9239 13.1429 2.85014C13.114 2.77638 13.1078 2.69562 13.1253 2.61832C13.1427 2.54102 13.183 2.47075 13.2409 2.41659C13.2987 2.36244 13.3715 2.32691 13.4498 2.3146C13.5281 2.30229 13.6082 2.31376 13.6799 2.34754C13.7516 2.38132 13.8115 2.43584 13.8518 2.50405C13.8922 2.57226 13.9111 2.65101 13.9062 2.7301C13.9006 2.7727 13.9038 2.81599 13.9156 2.85729C13.9275 2.89859 13.9477 2.937 13.9751 2.97012C14.0024 3.00324 14.0363 3.03037 14.0747 3.0498C14.113 3.06923 14.1549 3.08055 14.1978 3.08306C14.2407 3.08556 14.2836 3.0792 14.3239 3.06435C14.3643 3.04951 14.4011 3.02652 14.4321 2.9968C14.4631 2.96709 14.4877 2.9313 14.5043 2.89166C14.5209 2.85202 14.5291 2.80939 14.5285 2.76643C14.5445 2.29534 14.2808 1.88049 13.823 1.73362V1.5887C13.823 1.50582 13.7901 1.42633 13.7315 1.36773C13.6729 1.30912 13.5934 1.2762 13.5105 1.2762C13.4276 1.2762 13.3481 1.30912 13.2895 1.36773C13.2309 1.42633 13.198 1.50582 13.198 1.5887V1.73362C12.9665 1.80822 12.7693 1.96301 12.6419 2.17012C12.5144 2.37722 12.4651 2.62303 12.5027 2.86328C12.5404 3.10353 12.6627 3.32242 12.8474 3.48055C13.0322 3.63868 13.2673 3.72565 13.5105 3.72581C13.5895 3.72606 13.6667 3.74999 13.732 3.79451C13.7974 3.83903 13.8479 3.9021 13.877 3.97559C13.9062 4.04907 13.9126 4.1296 13.8956 4.2068C13.8786 4.284 13.8388 4.35433 13.7814 4.40871C13.724 4.46309 13.6517 4.49904 13.5737 4.51192C13.4957 4.5248 13.4156 4.51402 13.3438 4.48098C13.272 4.44793 13.2117 4.39412 13.1707 4.3265C13.1298 4.25888 13.11 4.18054 13.114 4.10159C13.1125 4.02249 13.0812 3.94689 13.0261 3.89004C12.9711 3.83318 12.8966 3.7993 12.8176 3.79524C12.7386 3.79118 12.661 3.81723 12.6004 3.86814C12.5399 3.91905 12.5009 3.99103 12.4913 4.06956V4.0676ZM10.7917 5.67112C10.5872 5.67174 10.3913 5.75327 10.2468 5.8979C10.1022 6.04253 10.0208 6.2385 10.0203 6.44299V7.15081C10.0208 7.35529 10.1022 7.55126 10.2468 7.6959C10.3913 7.84053 10.5872 7.92206 10.7917 7.92268H16.2277C16.4322 7.92206 16.6282 7.84054 16.7728 7.69592C16.9174 7.5513 16.9989 7.35533 16.9995 7.15081V6.44299C16.9989 6.23847 16.9174 6.0425 16.7728 5.89788C16.6282 5.75326 16.4322 5.67174 16.2277 5.67112H16.2109C15.8804 6.0666 15.4671 6.38472 15.0003 6.60301C14.5334 6.8213 14.0243 6.93444 13.5089 6.93444C12.9935 6.93444 12.4844 6.8213 12.0176 6.60301C11.5507 6.38472 11.1374 6.0666 10.807 5.67112H10.7917ZM10.7917 8.31331H16.2277C16.4322 8.31382 16.6281 8.39525 16.7728 8.53981C16.9174 8.68437 16.9989 8.8803 16.9995 9.08479V9.79299C16.9989 9.99748 16.9174 10.1934 16.7728 10.338C16.6281 10.4825 16.4322 10.564 16.2277 10.5645H10.7917C10.5873 10.5639 10.3914 10.4824 10.2469 10.3378C10.1023 10.1933 10.0209 9.99741 10.0203 9.79299V9.08479C10.0209 8.88037 10.1023 8.6845 10.2469 8.53995C10.3914 8.3954 10.5873 8.31392 10.7917 8.31331Z" fill="#3A3A3A"/>
</svg>
