<svg width="254" height="83" viewBox="0 0 254 83" fill="none" xmlns="http://www.w3.org/2000/svg">
<path d="M33.6243 47.4636C33.6243 49.1103 33.4118 50.5622 32.9869 51.8194C32.5796 53.0765 31.9953 54.1655 31.2339 55.0862C30.4903 56.0069 29.605 56.7772 28.578 57.3969C27.551 58.0166 26.4267 58.5124 25.2049 58.8842C24.0009 59.256 22.7172 59.5216 21.3538 59.681C20.0081 59.8404 18.6359 59.92 17.2371 59.92C15.3956 59.92 13.6958 59.7784 12.1377 59.4951C10.5795 59.2295 9.1099 58.8045 7.72881 58.2202C6.36542 57.6182 5.0463 56.848 3.77144 55.9095C2.5143 54.9711 1.25715 53.8291 0 52.4834L5.41813 46.9856C5.91391 48.2073 6.5956 49.3405 7.46321 50.3852C8.33082 51.4121 9.27811 52.2975 10.3051 53.0411C11.3497 53.7848 12.4298 54.3691 13.5453 54.7941C14.6608 55.219 15.7144 55.4315 16.7059 55.4315C17.8745 55.4315 18.9723 55.3518 19.9993 55.1924C21.0262 55.0154 21.9204 54.7321 22.6818 54.3425C23.4432 53.953 24.0363 53.4395 24.4613 52.8021C24.9039 52.147 25.1253 51.3325 25.1253 50.3586C25.1253 49.615 24.957 48.9775 24.6206 48.4463C24.2842 47.9151 23.8416 47.4636 23.2927 47.0918C22.7615 46.7023 22.1506 46.3747 21.4601 46.1091C20.7695 45.8435 20.0613 45.6222 19.3353 45.4451C18.627 45.2503 17.9276 45.0821 17.2371 44.9405C16.5465 44.7811 15.9357 44.6218 15.4045 44.4624C14.3598 44.1614 13.2709 43.8427 12.1377 43.5063C11.0045 43.1522 9.88898 42.7538 8.79118 42.3111C7.69339 41.8684 6.64872 41.3638 5.65717 40.7972C4.68332 40.2129 3.82456 39.5312 3.0809 38.7521C2.33723 37.9553 1.74407 37.0435 1.30141 36.0165C0.858756 34.9718 0.637427 33.7767 0.637427 32.431C0.637427 30.8197 0.832197 29.3943 1.22174 28.1549C1.62898 26.8978 2.19558 25.8088 2.92154 24.8881C3.6475 23.9674 4.50626 23.1971 5.49781 22.5774C6.48936 21.94 7.5783 21.4354 8.76462 21.0635C9.95095 20.674 11.2081 20.3995 12.5361 20.2402C13.8817 20.0631 15.254 19.9746 16.6528 19.9746C18.5651 19.9746 20.3003 20.1516 21.8584 20.5058C23.4343 20.8599 24.8862 21.3645 26.2142 22.0197C27.5422 22.6748 28.7551 23.4627 29.8528 24.3835C30.9683 25.2865 32.013 26.2957 32.9869 27.4112L27.5687 32.909C27.1438 31.6342 26.5506 30.4833 25.7892 29.4563C25.0456 28.4293 24.2134 27.5529 23.2927 26.8269C22.3719 26.0833 21.4069 25.5167 20.3977 25.1271C19.3884 24.7199 18.4146 24.5163 17.4761 24.5163C16.2544 24.5163 15.13 24.6048 14.1031 24.7818C13.0761 24.9412 12.1908 25.2157 11.4471 25.6052C10.7212 25.977 10.1546 26.4905 9.74732 27.1456C9.34008 27.7831 9.13646 28.5799 9.13646 29.536C9.13646 30.2974 9.28696 30.9436 9.58797 31.4748C9.88898 32.006 10.2874 32.4575 10.7831 32.8294C11.2966 33.2012 11.8721 33.5111 12.5095 33.759C13.1469 33.9891 13.8021 34.1928 14.4749 34.3698C15.1655 34.5469 15.8383 34.7062 16.4934 34.8479C17.1663 34.9718 17.7771 35.1135 18.326 35.2728C19.3884 35.5738 20.5039 35.8926 21.6725 36.229C22.8411 36.5654 23.9921 36.9638 25.1253 37.4242C26.2585 37.8668 27.3385 38.3803 28.3655 38.9646C29.3925 39.5489 30.2955 40.2483 31.0746 41.0628C31.8537 41.8596 32.4734 42.7892 32.9337 43.8515C33.3941 44.8962 33.6243 46.1003 33.6243 47.4636Z" fill="white"/>
<path d="M50.7551 59.1498H41.7515V32.0326H36.174V28.4736H41.7515V17.1858H50.7551V28.4736H60.051V32.0326H50.7551V59.1498Z" fill="white"/>
<path d="M95.2423 43.7453C95.2423 45.3389 95.0298 46.8351 94.6048 48.2339C94.1799 49.6327 93.5867 50.9252 92.8253 52.1115C92.0817 53.2979 91.1787 54.3691 90.1163 55.3252C89.0539 56.2637 87.8853 57.0605 86.6104 57.7156C85.3533 58.3707 83.9987 58.8754 82.5468 59.2295C81.1126 59.5836 79.6341 59.7607 78.1114 59.7607C76.5887 59.7607 75.1102 59.5836 73.676 59.2295C72.2418 58.8754 70.8872 58.3707 69.6124 57.7156C68.3552 57.0605 67.1955 56.2637 66.1331 55.3252C65.0707 54.3691 64.1588 53.2979 63.3975 52.1115C62.6538 50.9252 62.0695 49.6327 61.6445 48.2339C61.2196 46.8174 61.0071 45.3212 61.0071 43.7453C61.0071 42.1694 61.2196 40.6821 61.6445 39.2833C62.0695 37.8668 62.6538 36.5654 63.3975 35.3791C64.1588 34.1928 65.0707 33.1304 66.1331 32.1919C67.1955 31.2358 68.3552 30.4302 69.6124 29.775C70.8872 29.1199 72.2418 28.6153 73.676 28.2611C75.1102 27.907 76.5887 27.73 78.1114 27.73C79.6341 27.73 81.1126 27.907 82.5468 28.2611C83.9987 28.6153 85.3533 29.1199 86.6104 29.775C87.8853 30.4302 89.0539 31.2358 90.1163 32.1919C91.1787 33.1304 92.0817 34.1928 92.8253 35.3791C93.5867 36.5654 94.1799 37.8668 94.6048 39.2833C95.0298 40.6821 95.2423 42.1694 95.2423 43.7453ZM86.1058 43.7453C86.1058 42.8954 86.0527 42.0012 85.9464 41.0628C85.8579 40.1067 85.6986 39.1771 85.4684 38.2741C85.2382 37.3533 84.9195 36.4769 84.5122 35.6447C84.1227 34.7948 83.6358 34.06 83.0515 33.4402C82.4672 32.8028 81.7678 32.2982 80.9533 31.9263C80.1388 31.5368 79.1915 31.342 78.1114 31.342C77.0844 31.342 76.1726 31.5368 75.3758 31.9263C74.579 32.3159 73.8796 32.8382 73.2776 33.4934C72.6933 34.1308 72.1975 34.8744 71.7902 35.7244C71.4007 36.5743 71.082 37.4596 70.8341 38.3803C70.5862 39.2833 70.4092 40.204 70.3029 41.1425C70.1967 42.0632 70.1436 42.9308 70.1436 43.7453C70.1436 44.5598 70.1967 45.4363 70.3029 46.3747C70.4092 47.2954 70.5862 48.2162 70.8341 49.1369C71.082 50.0576 71.4007 50.9429 71.7902 51.7928C72.1975 52.625 72.6933 53.3687 73.2776 54.0238C73.8796 54.6613 74.579 55.1747 75.3758 55.5643C76.1726 55.9538 77.0844 56.1486 78.1114 56.1486C79.1738 56.1486 80.1122 55.9627 80.9267 55.5908C81.7412 55.2013 82.4406 54.6878 83.0249 54.0504C83.6269 53.413 84.1227 52.6781 84.5122 51.846C84.9018 51.0138 85.2116 50.1373 85.4418 49.2166C85.6897 48.2958 85.8579 47.3663 85.9464 46.4278C86.0527 45.4894 86.1058 44.5952 86.1058 43.7453Z" fill="white"/>
<path d="M166.15 51.1262V29.9992H173.868C176.046 29.9992 177.746 30.4781 178.967 31.4359C180.197 32.3842 180.812 33.7035 180.812 35.3937C180.812 36.4923 180.549 37.4594 180.023 38.2951C179.497 39.1214 178.793 39.7364 177.91 40.1402C179.14 40.4782 180.103 41.0886 180.798 41.9712C181.493 42.8539 181.84 43.9384 181.84 45.2248C181.84 46.4079 181.549 47.4455 180.967 48.3375C180.385 49.2201 179.563 49.9056 178.502 50.3938C177.45 50.8821 176.211 51.1262 174.784 51.1262H166.15ZM169.868 38.9993H173.671C174.741 38.9993 175.586 38.7411 176.206 38.2247C176.826 37.6989 177.136 36.9899 177.136 36.0979C177.136 35.2246 176.816 34.5345 176.178 34.0275C175.549 33.5204 174.685 33.2669 173.586 33.2669H169.868V38.9993ZM169.868 47.8586H173.882C174.727 47.8586 175.46 47.7318 176.079 47.4783C176.699 47.2154 177.178 46.8539 177.516 46.3938C177.863 45.9243 178.037 45.375 178.037 44.7459C178.037 44.1356 177.877 43.6097 177.558 43.1684C177.239 42.7177 176.788 42.375 176.206 42.1402C175.624 41.8961 174.929 41.774 174.122 41.774H169.868V47.8586Z" fill="white"/>
<path d="M198.192 51.1262H195.333L195.22 48.8586C194.713 49.6849 194.047 50.3187 193.22 50.76C192.394 51.192 191.418 51.4079 190.291 51.4079C188.479 51.4079 187.047 50.8539 185.995 49.746C184.953 48.6286 184.432 47.0933 184.432 45.1403V37.0416H187.896V44.4783C187.896 45.652 188.192 46.5816 188.784 47.267C189.385 47.9431 190.197 48.2811 191.22 48.2811C192.281 48.2811 193.131 47.9196 193.77 47.1966C194.408 46.4736 194.727 45.5112 194.727 44.3093V37.0416H198.192V51.1262Z" fill="white"/>
<path d="M216.207 51.1262H213.15L212.967 49.1544C212.357 49.8586 211.615 50.4126 210.742 50.8164C209.868 51.2108 208.92 51.4079 207.897 51.4079C206.573 51.4079 205.39 51.0887 204.347 50.4502C203.305 49.8117 202.483 48.9431 201.882 47.8445C201.291 46.7365 200.995 45.483 200.995 44.0839C200.995 42.6848 201.291 41.436 201.882 40.3374C202.483 39.2294 203.305 38.3561 204.347 37.7176C205.39 37.0791 206.573 36.7599 207.897 36.7599C208.864 36.7599 209.761 36.9336 210.587 37.281C211.413 37.6284 212.131 38.1167 212.742 38.7458V29.9992H216.207V51.1262ZM208.657 48.2952C209.408 48.2952 210.094 48.1262 210.714 47.7882C211.333 47.4408 211.826 46.9666 212.192 46.3656C212.559 45.7647 212.742 45.0792 212.742 44.3093V43.8163C212.742 43.0557 212.559 42.3797 212.192 41.7881C211.826 41.1872 211.333 40.7177 210.714 40.3796C210.094 40.0322 209.408 39.8585 208.657 39.8585C207.868 39.8585 207.164 40.0463 206.545 40.4219C205.925 40.7881 205.437 41.2905 205.08 41.929C204.723 42.5581 204.544 43.2717 204.544 44.0698C204.544 44.8773 204.723 45.6004 205.08 46.2389C205.437 46.8774 205.925 47.3797 206.545 47.7459C207.164 48.1121 207.868 48.2952 208.657 48.2952Z" fill="white"/>
<path d="M234.207 51.1262H231.15L230.967 49.1544C230.357 49.8586 229.615 50.4126 228.742 50.8164C227.869 51.2108 226.92 51.4079 225.897 51.4079C224.573 51.4079 223.39 51.0887 222.348 50.4502C221.305 49.8117 220.484 48.9431 219.883 47.8445C219.291 46.7365 218.995 45.483 218.995 44.0839C218.995 42.6848 219.291 41.436 219.883 40.3374C220.484 39.2294 221.305 38.3561 222.348 37.7176C223.39 37.0791 224.573 36.7599 225.897 36.7599C226.864 36.7599 227.761 36.9336 228.587 37.281C229.413 37.6284 230.132 38.1167 230.742 38.7458V29.9992H234.207V51.1262ZM226.657 48.2952C227.409 48.2952 228.094 48.1262 228.714 47.7882C229.334 47.4408 229.826 46.9666 230.193 46.3656C230.559 45.7647 230.742 45.0792 230.742 44.3093V43.8163C230.742 43.0557 230.559 42.3797 230.193 41.7881C229.826 41.1872 229.334 40.7177 228.714 40.3796C228.094 40.0322 227.409 39.8585 226.657 39.8585C225.869 39.8585 225.164 40.0463 224.545 40.4219C223.925 40.7881 223.437 41.2905 223.08 41.929C222.723 42.5581 222.545 43.2717 222.545 44.0698C222.545 44.8773 222.723 45.6004 223.08 46.2389C223.437 46.8774 223.925 47.3797 224.545 47.7459C225.164 48.1121 225.869 48.2952 226.657 48.2952Z" fill="white"/>
<path d="M244.475 58.1686H240.77L243.7 51.0699L236.714 37.0416H240.615L245.348 47.1121L249.517 37.0416H253.221L244.475 58.1686Z" fill="white"/>
<path d="M174.793 21.4618L165.407 25.4139C164.675 23.0353 163.687 20.858 162.443 18.882C161.235 16.906 159.772 15.2227 158.052 13.8322C156.368 12.405 154.447 11.3073 152.288 10.5388C150.129 9.73375 147.769 9.33123 145.208 9.33123C142.463 9.33123 139.938 9.78864 137.633 10.7035C135.364 11.5817 133.315 12.8076 131.485 14.3811C129.692 15.9546 128.119 17.7842 126.765 19.87C125.411 21.9558 124.276 24.188 123.362 26.5666C122.447 28.9085 121.77 31.3419 121.331 33.8669C120.892 36.3918 120.672 38.8618 120.672 41.277C120.672 45.1192 121.111 48.9432 121.989 52.7489C122.904 56.5546 124.331 59.976 126.271 63.0132C128.247 66.0505 130.79 68.5205 133.9 70.4233C137.011 72.2896 140.78 73.2227 145.208 73.2227C147.55 73.2227 149.763 72.8385 151.849 72.07C153.935 71.265 155.82 70.1855 157.503 68.8315C159.223 67.441 160.723 65.8126 162.004 63.9464C163.285 62.0801 164.309 60.0675 165.078 57.9085L174.574 61.6959C173.183 65.1722 171.28 68.2277 168.865 70.8624C166.45 73.4605 163.687 75.6195 160.577 77.3394C157.503 79.0593 154.191 80.34 150.642 81.1817C147.129 82.0599 143.579 82.499 139.993 82.499C136.114 82.499 132.382 82.0233 128.796 81.0719C125.246 80.1205 121.934 78.7665 118.861 77.0101C115.787 75.2536 112.987 73.1312 110.463 70.6429C107.974 68.1545 105.833 65.3918 104.04 62.3546C102.284 59.3173 100.912 56.024 99.9237 52.4744C98.9723 48.8883 98.4966 45.1558 98.4966 41.277C98.4966 37.3981 98.9723 33.6839 99.9237 30.1344C100.912 26.5483 102.284 23.2366 104.04 20.1994C105.833 17.1255 107.974 14.3445 110.463 11.8561C112.987 9.36782 115.787 7.24542 118.861 5.48896C121.934 3.73249 125.246 2.37855 128.796 1.42713C132.382 0.47571 136.114 0 139.993 0C143.726 0 147.367 0.439117 150.916 1.31735C154.502 2.19558 157.832 3.53123 160.906 5.32429C163.98 7.08075 166.706 9.31293 169.085 12.0208C171.5 14.6921 173.403 17.8391 174.793 21.4618Z" fill="#FF9501"/>
<path d="M143.058 57.6356C142.06 57.6356 141.302 57.2966 140.784 56.6185C140.465 56.1398 140.146 55.4218 139.827 54.4645C139.507 53.5071 139.228 52.5099 138.989 51.4728C138.75 50.4357 138.55 49.598 138.391 48.9598C137.274 50.3958 136.276 51.8318 135.399 53.2678C134.561 54.7038 134.003 55.8207 133.724 56.6185C133.644 56.8578 133.365 57.0572 132.886 57.2168C132.447 57.3764 132.008 57.4561 131.57 57.4561C130.931 57.4561 130.692 57.2567 130.852 56.8578C132.088 54.1055 133.265 51.4529 134.382 48.9C135.499 46.3471 136.675 43.7743 137.912 41.1815C139.188 38.5887 140.624 35.8962 142.22 33.104C143.337 31.0697 144.673 29.1151 146.229 27.2404C147.824 25.3257 149.52 23.7701 151.315 22.5734C153.11 21.3368 154.924 20.7186 156.759 20.7186C157.358 20.7186 157.916 20.8781 158.435 21.1972C158.953 21.5163 159.213 22.0149 159.213 22.6931V24.4282C159.213 24.5878 159.093 24.6676 158.854 24.6676C158.734 24.6676 158.674 24.6277 158.674 24.5479C158.674 23.9097 158.395 23.4908 157.836 23.2914C157.278 23.0521 156.739 22.9324 156.221 22.9324C154.825 22.9324 153.409 23.2116 151.973 23.7701C150.377 24.4083 149.041 25.3656 147.964 26.642C146.887 27.9185 145.89 29.2747 144.972 30.7107C143.776 32.5456 142.599 34.6996 141.442 37.1727C140.285 39.6059 139.208 42.0591 138.211 44.5322C137.254 47.0053 136.396 49.239 135.638 51.2335C136.077 50.675 136.516 50.1166 136.955 49.5582C137.393 48.9997 137.812 48.4812 138.211 48.0025C138.211 47.9227 138.191 47.8429 138.151 47.7632C138.151 47.6834 138.151 47.6036 138.151 47.5238C138.151 47.2446 138.211 47.0053 138.331 46.8058C138.45 46.6064 138.61 46.367 138.809 46.0878C139.089 45.6889 139.348 45.3898 139.587 45.1903C139.827 44.951 140.086 44.6518 140.365 44.2928L140.545 45.31C142.3 43.515 143.835 42.2186 145.152 41.4208C146.069 40.8624 146.967 40.5832 147.844 40.5832C148.722 40.5832 149.161 40.9222 149.161 41.6003C149.161 42.1588 148.881 42.8568 148.323 43.6945C148.123 43.9737 148.004 44.1732 147.964 44.2928C147.924 44.4125 147.844 44.5322 147.725 44.6518C147.685 44.6917 147.605 44.6917 147.485 44.6518C147.366 44.6119 147.306 44.5521 147.306 44.4723C147.306 43.9937 147.146 43.6945 146.827 43.5748C146.508 43.4153 146.149 43.3355 145.75 43.3355C144.992 43.3355 144.174 43.6147 143.297 44.1732C142.459 44.6917 141.602 45.4097 140.724 46.3272C140.923 47.3244 141.143 48.4213 141.382 49.618C141.661 50.7748 141.961 51.8518 142.28 52.849C142.599 53.8462 142.898 54.5841 143.177 55.0628C143.377 55.3819 143.656 55.6013 144.015 55.721C144.374 55.8007 144.673 55.8406 144.912 55.8406C145.471 55.8406 146.109 55.5614 146.827 55.003C147.585 54.4046 148.343 53.7066 149.101 52.9088C149.898 52.0711 150.616 51.2534 151.255 50.4556C151.933 49.6579 152.451 49.0197 152.81 48.541C152.97 48.7404 153.01 48.9399 152.93 49.1393C152.89 49.3787 152.77 49.6379 152.571 49.9172C152.411 50.1565 152.252 50.3759 152.092 50.5753C151.295 51.5725 150.437 52.5897 149.52 53.6268C148.602 54.624 147.625 55.5215 146.588 56.3193C146.149 56.6783 145.61 56.9974 144.972 57.2766C144.334 57.516 143.696 57.6356 143.058 57.6356Z" fill="#FDD114"/>
</svg>
