<svg width="23" height="23" viewBox="0 0 23 23" fill="none" xmlns="http://www.w3.org/2000/svg">
<rect width="23" height="23" rx="2" fill="#EEEEEE"/>
<path d="M9.25325 12.0468C9.25325 11.7735 9.47991 11.5468 9.75325 11.5468H13.4066V5.90683C13.3999 5.58683 13.1466 5.3335 12.8266 5.3335C8.89991 5.3335 6.15991 8.0735 6.15991 12.0002C6.15991 15.9268 8.89991 18.6668 12.8266 18.6668C13.1399 18.6668 13.3999 18.4135 13.3999 18.0935V12.5402H9.75325C9.47325 12.5468 9.25325 12.3202 9.25325 12.0468Z" fill="#3A3A3A"/>
<path d="M17.6932 11.6934L15.7999 9.79344C15.6066 9.6001 15.2866 9.6001 15.0932 9.79344C14.8999 9.98677 14.8999 10.3068 15.0932 10.5001L16.1332 11.5401H13.3999V12.5401H16.1266L15.0866 13.5801C14.8932 13.7734 14.8932 14.0934 15.0866 14.2868C15.1866 14.3868 15.3132 14.4334 15.4399 14.4334C15.5666 14.4334 15.6932 14.3868 15.7932 14.2868L17.6866 12.3868C17.8866 12.2001 17.8866 11.8868 17.6932 11.6934Z" fill="#3A3A3A"/>
</svg>
