<svg width="23" height="23" viewBox="0 0 23 23" fill="none" xmlns="http://www.w3.org/2000/svg">
<rect width="23" height="23" rx="2" fill="#EEEEEE"/>
<path d="M16.36 6.74689L12.6934 5.37355C12.3134 5.23355 11.6934 5.23355 11.3134 5.37355L7.6467 6.74689C6.94003 7.01355 6.3667 7.84022 6.3667 8.59355V13.9936C6.3667 14.5336 6.72003 15.2469 7.15337 15.5669L10.82 18.3069C11.4667 18.7936 12.5267 18.7936 13.1734 18.3069L16.84 15.5669C17.2734 15.2402 17.6267 14.5336 17.6267 13.9936V8.59355C17.6334 7.84022 17.06 7.01355 16.36 6.74689ZM14.32 10.4802L11.4534 13.3469C11.3534 13.4469 11.2267 13.4936 11.1 13.4936C10.9734 13.4936 10.8467 13.4469 10.7467 13.3469L9.68003 12.2669C9.4867 12.0736 9.4867 11.7536 9.68003 11.5602C9.87337 11.3669 10.1934 11.3669 10.3867 11.5602L11.1067 12.2802L13.62 9.76689C13.8134 9.57355 14.1334 9.57355 14.3267 9.76689C14.52 9.96022 14.52 10.2869 14.32 10.4802Z" fill="#3A3A3A"/>
</svg>
