<svg width="157" height="51" viewBox="0 0 157 51" fill="none" xmlns="http://www.w3.org/2000/svg">
<path d="M20.842 29.0474C20.842 30.0552 20.7103 30.9438 20.4469 31.7131C20.1945 32.4825 19.8323 33.1489 19.3604 33.7124C18.8994 34.2759 18.3506 34.7473 17.7141 35.1265C17.0775 35.5058 16.3806 35.8092 15.6233 36.0368C14.877 36.2643 14.0813 36.4269 13.2362 36.5244C12.402 36.6219 11.5515 36.6707 10.6844 36.6707C9.54299 36.6707 8.48936 36.584 7.52354 36.4106C6.55772 36.2481 5.64677 35.988 4.7907 35.6304C3.9456 35.262 3.12795 34.7906 2.33773 34.2163C1.55849 33.642 0.779243 32.943 0 32.1195L3.35843 28.7549C3.66574 29.5026 4.08828 30.1961 4.62607 30.8354C5.16386 31.4639 5.75103 32.0057 6.3876 32.4608C7.03514 32.916 7.70463 33.2736 8.39607 33.5336C9.08751 33.7937 9.74054 33.9237 10.3552 33.9237C11.0795 33.9237 11.76 33.875 12.3966 33.7774C13.0331 33.6691 13.5874 33.4957 14.0593 33.2573C14.5312 33.0189 14.8989 32.7047 15.1623 32.3145C15.4367 31.9136 15.5739 31.4151 15.5739 30.8192C15.5739 30.364 15.4696 29.9739 15.2611 29.6488C15.0526 29.3238 14.7782 29.0474 14.438 28.8199C14.1087 28.5815 13.73 28.381 13.302 28.2185C12.874 28.0559 12.435 27.9205 11.985 27.8121C11.546 27.6929 11.1124 27.59 10.6844 27.5033C10.2564 27.4058 9.87773 27.3082 9.54847 27.2107C8.90093 27.0265 8.22596 26.8314 7.52354 26.6256C6.82112 26.4088 6.12968 26.165 5.44921 25.8941C4.76875 25.6232 4.12121 25.3144 3.50659 24.9676C2.90296 24.61 2.37066 24.1928 1.90969 23.716C1.44873 23.2284 1.08106 22.6704 0.806681 22.0419C0.5323 21.4025 0.395109 20.6711 0.395109 19.8475C0.395109 18.8614 0.515837 17.9891 0.757293 17.2306C1.00972 16.4612 1.36093 15.7948 1.81092 15.2313C2.2609 14.6678 2.7932 14.1965 3.40782 13.8172C4.02243 13.4271 4.69741 13.1183 5.43275 12.8907C6.16809 12.6523 6.94734 12.4843 7.77048 12.3868C8.6046 12.2785 9.45518 12.2243 10.3222 12.2243C11.5076 12.2243 12.5831 12.3326 13.549 12.5494C14.5258 12.7661 15.4257 13.0749 16.2489 13.4759C17.072 13.8768 17.8238 14.359 18.5043 14.9225C19.1957 15.4751 19.8433 16.0928 20.4469 16.7755L17.0885 20.1401C16.8251 19.3599 16.4574 18.6555 15.9855 18.027C15.5245 17.3986 15.0087 16.8622 14.438 16.4179C13.8672 15.9628 13.2691 15.616 12.6435 15.3776C12.0179 15.1284 11.4143 15.0038 10.8326 15.0038C10.0753 15.0038 9.37836 15.0579 8.74179 15.1663C8.10523 15.2638 7.55646 15.4318 7.0955 15.6702C6.64552 15.8977 6.29431 16.212 6.04188 16.6129C5.78945 17.003 5.66323 17.4907 5.66323 18.0758C5.66323 18.5418 5.75652 18.9373 5.9431 19.2624C6.12968 19.5875 6.37662 19.8638 6.68393 20.0913C7.00221 20.3189 7.35891 20.5085 7.75402 20.6602C8.14913 20.8011 8.55521 20.9257 8.97227 21.0341C9.40031 21.1424 9.81737 21.24 10.2235 21.3267C10.6405 21.4025 11.0192 21.4892 11.3594 21.5867C12.0179 21.7709 12.7093 21.966 13.4337 22.1719C14.1581 22.3778 14.8715 22.6216 15.5739 22.9033C16.2763 23.1742 16.9458 23.4885 17.5824 23.8461C18.2189 24.2037 18.7787 24.6317 19.2616 25.1302C19.7445 25.6178 20.1286 26.1867 20.414 26.8369C20.6993 27.4762 20.842 28.2131 20.842 29.0474Z" fill="white"/>
<path d="M31.4606 36.1993H25.8797V19.6037H22.4225V17.4256H25.8797V10.5176H31.4606V17.4256H37.2226V19.6037H31.4606V36.1993Z" fill="white"/>
<path d="M59.0359 26.7718C59.0359 27.7471 58.9042 28.6628 58.6408 29.5188C58.3774 30.3749 58.0097 31.1659 57.5378 31.8919C57.0768 32.618 56.5171 33.2736 55.8586 33.8587C55.2001 34.433 54.4757 34.9206 53.6855 35.3216C52.9062 35.7225 52.0666 36.0314 51.1666 36.2481C50.2777 36.4648 49.3612 36.5732 48.4173 36.5732C47.4735 36.5732 46.557 36.4648 45.668 36.2481C44.779 36.0314 43.9394 35.7225 43.1492 35.3216C42.37 34.9206 41.6511 34.433 40.9926 33.8587C40.3341 33.2736 39.7688 32.618 39.2969 31.8919C38.8359 31.1659 38.4738 30.3749 38.2104 29.5188C37.947 28.6519 37.8152 27.7363 37.8152 26.7718C37.8152 25.8074 37.947 24.8972 38.2104 24.0411C38.4738 23.1742 38.8359 22.3778 39.2969 21.6517C39.7688 20.9257 40.3341 20.2756 40.9926 19.7012C41.6511 19.1161 42.37 18.623 43.1492 18.2221C43.9394 17.8212 44.779 17.5123 45.668 17.2956C46.557 17.0789 47.4735 16.9705 48.4173 16.9705C49.3612 16.9705 50.2777 17.0789 51.1666 17.2956C52.0666 17.5123 52.9062 17.8212 53.6855 18.2221C54.4757 18.623 55.2001 19.1161 55.8586 19.7012C56.5171 20.2756 57.0768 20.9257 57.5378 21.6517C58.0097 22.3778 58.3774 23.1742 58.6408 24.0411C58.9042 24.8972 59.0359 25.8074 59.0359 26.7718ZM53.3727 26.7718C53.3727 26.2517 53.3397 25.7045 53.2739 25.1302C53.219 24.545 53.1202 23.9761 52.9776 23.4235C52.8349 22.86 52.6373 22.3236 52.3849 21.8143C52.1434 21.2942 51.8416 20.8445 51.4794 20.4652C51.1173 20.0751 50.6837 19.7663 50.1789 19.5387C49.674 19.3003 49.0868 19.1811 48.4173 19.1811C47.7808 19.1811 47.2156 19.3003 46.7217 19.5387C46.2278 19.7771 45.7943 20.0968 45.4211 20.4977C45.0589 20.8878 44.7516 21.3429 44.4992 21.8631C44.2577 22.3832 44.0602 22.925 43.9065 23.4885C43.7529 24.0411 43.6431 24.6046 43.5773 25.1789C43.5114 25.7424 43.4785 26.2734 43.4785 26.7718C43.4785 27.2703 43.5114 27.8067 43.5773 28.381C43.6431 28.9445 43.7529 29.508 43.9065 30.0715C44.0602 30.6349 44.2577 31.1767 44.4992 31.6969C44.7516 32.2062 45.0589 32.6613 45.4211 33.0622C45.7943 33.4523 46.2278 33.7666 46.7217 34.005C47.2156 34.2434 47.7808 34.3626 48.4173 34.3626C49.0759 34.3626 49.6576 34.2488 50.1624 34.0212C50.6673 33.7829 51.1008 33.4686 51.463 33.0785C51.8361 32.6884 52.1434 32.2387 52.3849 31.7294C52.6264 31.2201 52.8184 30.6837 52.9611 30.1202C53.1148 29.5567 53.219 28.9878 53.2739 28.4135C53.3397 27.8392 53.3727 27.292 53.3727 26.7718Z" fill="white"/>
<path d="M108.346 13.1345L102.528 15.5532C102.074 14.0975 101.462 12.765 100.69 11.5557C99.9419 10.3464 99.0346 9.31622 97.9685 8.46522C96.9251 7.59182 95.7343 6.91998 94.3961 6.44969C93.0578 5.95701 91.5948 5.71066 90.0071 5.71066C88.3059 5.71066 86.7408 5.9906 85.3118 6.55047C83.9055 7.08794 82.6353 7.83817 81.5012 8.80114C80.3898 9.76412 79.4145 10.8839 78.5752 12.1604C77.736 13.4369 77.0328 14.8029 76.4658 16.2586C75.8987 17.6919 75.4791 19.1811 75.2069 20.7264C74.9347 22.2716 74.7986 23.7832 74.7986 25.2613C74.7986 27.6127 75.0708 29.953 75.6152 32.282C76.1823 34.6111 77.0669 36.705 78.269 38.5638C79.4939 40.4225 81.0703 41.9342 82.9983 43.0987C84.9262 44.2408 87.2625 44.8119 90.0071 44.8119C91.4587 44.8119 92.831 44.5768 94.1239 44.1065C95.4168 43.6138 96.5849 42.9532 97.6283 42.1245C98.6943 41.2735 99.6243 40.277 100.418 39.1348C101.212 37.9927 101.847 36.761 102.323 35.4397L108.21 37.7576C107.348 39.8851 106.168 41.755 104.671 43.3675C103.174 44.9575 101.462 46.2788 99.5336 47.3313C97.6283 48.3839 95.5755 49.1677 93.3754 49.6828C91.1979 50.2202 88.9977 50.489 86.7748 50.489C84.3705 50.489 82.0569 50.1979 79.8341 49.6156C77.6339 49.0333 75.5812 48.2047 73.6759 47.1298C71.7706 46.0548 70.0354 44.7559 68.4703 43.2331C66.9279 41.7102 65.601 40.0194 64.4896 38.1607C63.4008 36.3019 62.5502 34.2864 61.9378 32.1141C61.3481 29.9194 61.0532 27.6351 61.0532 25.2613C61.0532 22.8874 61.3481 20.6144 61.9378 18.4421C62.5502 16.2474 63.4008 14.2207 64.4896 12.3619C65.601 10.4807 66.9279 8.77875 68.4703 7.2559C70.0354 5.73306 71.7706 4.43416 73.6759 3.35921C75.5812 2.28427 77.6339 1.45566 79.8341 0.873396C82.0569 0.291132 84.3705 0 86.7748 0C89.0884 0 91.3453 0.268737 93.5455 0.806211C95.7683 1.34369 97.8324 2.16109 99.7377 3.25844C101.643 4.33339 103.333 5.69947 104.807 7.35668C106.304 8.9915 107.484 10.9174 108.346 13.1345Z" fill="#FF9501"/>
<path d="M88.6744 35.2727C88.0563 35.2727 87.5865 35.0652 87.2651 34.6502C87.0673 34.3573 86.8695 33.9179 86.6717 33.332C86.4739 32.7461 86.3008 32.1358 86.1524 31.5011C86.0041 30.8664 85.8805 30.3538 85.7816 29.9632C85.0893 30.842 84.4711 31.7208 83.9272 32.5997C83.408 33.4785 83.0618 34.162 82.8887 34.6502C82.8393 34.7967 82.6662 34.9188 82.3695 35.0164C82.0975 35.1141 81.8256 35.1629 81.5536 35.1629C81.158 35.1629 81.0096 35.0408 81.1085 34.7967C81.875 33.1123 82.6044 31.4889 83.2967 29.9266C83.989 28.3642 84.7184 26.7897 85.4849 25.2029C86.2761 23.6161 87.1662 21.9684 88.1552 20.2595C88.8475 19.0145 89.6758 17.8184 90.64 16.671C91.629 15.4992 92.6799 14.5472 93.7925 13.8148C94.9051 13.0581 96.0301 12.6797 97.1675 12.6797C97.5383 12.6797 97.8845 12.7773 98.2059 12.9726C98.5273 13.1679 98.688 13.4731 98.688 13.8881V14.95C98.688 15.0476 98.6139 15.0965 98.4655 15.0965C98.3913 15.0965 98.3543 15.072 98.3543 15.0232C98.3543 14.6326 98.1812 14.3763 97.835 14.2542C97.4889 14.1078 97.1551 14.0345 96.8337 14.0345C95.9683 14.0345 95.0906 14.2054 94.2004 14.5472C93.2114 14.9378 92.3832 15.5237 91.7156 16.3048C91.048 17.086 90.4299 17.916 89.8612 18.7948C89.1194 19.9178 88.3901 21.236 87.673 22.7495C86.956 24.2386 86.2884 25.74 85.6703 27.2535C85.0769 28.767 84.5453 30.1341 84.0755 31.3547C84.3475 31.0129 84.6195 30.6711 84.8915 30.3294C85.1634 29.9876 85.4231 29.6703 85.6703 29.3773C85.6703 29.3285 85.6579 29.2797 85.6332 29.2308C85.6332 29.182 85.6332 29.1332 85.6332 29.0844C85.6332 28.9135 85.6703 28.767 85.7445 28.645C85.8187 28.5229 85.9176 28.3764 86.0412 28.2056C86.2143 27.9614 86.375 27.7783 86.5233 27.6563C86.6717 27.5098 86.8324 27.3267 87.0055 27.107L87.1167 27.7295C88.2046 26.631 89.1565 25.8376 89.9725 25.3494C90.5411 25.0076 91.0975 24.8367 91.6414 24.8367C92.1854 24.8367 92.4573 25.0442 92.4573 25.4592C92.4573 25.801 92.2843 26.2282 91.9381 26.7408C91.8145 26.9117 91.7403 27.0338 91.7156 27.107C91.6909 27.1803 91.6414 27.2535 91.5672 27.3267C91.5425 27.3511 91.4931 27.3511 91.4189 27.3267C91.3447 27.3023 91.3076 27.2657 91.3076 27.2169C91.3076 26.9239 91.2087 26.7408 91.0109 26.6676C90.8131 26.57 90.5906 26.5211 90.3433 26.5211C89.8736 26.5211 89.3667 26.692 88.8227 27.0338C88.3035 27.3511 87.7719 27.7906 87.228 28.352C87.3516 28.9623 87.4876 29.6336 87.6359 30.366C87.809 31.0739 87.9945 31.733 88.1923 32.3433C88.3901 32.9536 88.5755 33.4053 88.7486 33.6982C88.8722 33.8935 89.0453 34.0278 89.2678 34.101C89.4903 34.1498 89.6758 34.1742 89.8241 34.1742C90.1703 34.1742 90.5659 34.0033 91.0109 33.6616C91.4807 33.2954 91.9505 32.8682 92.4202 32.38C92.9147 31.8673 93.3598 31.3669 93.7554 30.8786C94.1757 30.3904 94.4971 29.9998 94.7197 29.7069C94.8186 29.8289 94.8433 29.951 94.7938 30.073C94.7691 30.2195 94.6949 30.3782 94.5713 30.5491C94.4724 30.6955 94.3735 30.8298 94.2746 30.9519C93.7801 31.5622 93.2485 32.1847 92.6799 32.8194C92.1112 33.4297 91.5054 33.9789 90.8626 34.4672C90.5906 34.6869 90.2568 34.8822 89.8612 35.053C89.4656 35.1995 89.07 35.2727 88.6744 35.2727Z" fill="#FDD114"/>
<path d="M103.029 31.7758V18.8462H107.813C109.163 18.8462 110.217 19.1393 110.973 19.7254C111.736 20.3058 112.117 21.1132 112.117 22.1476C112.117 22.8199 111.954 23.4118 111.628 23.9232C111.302 24.4289 110.866 24.8053 110.319 25.0524C111.081 25.2593 111.678 25.6328 112.108 26.173C112.539 26.7132 112.754 27.3769 112.754 28.1641C112.754 28.8882 112.574 29.5232 112.213 30.0691C111.852 30.6093 111.343 31.0288 110.685 31.3276C110.033 31.6264 109.265 31.7758 108.381 31.7758H103.029ZM105.334 24.3542H107.691C108.354 24.3542 108.878 24.1962 109.262 23.8801C109.646 23.5583 109.839 23.1245 109.839 22.5785C109.839 22.0441 109.641 21.6218 109.245 21.3114C108.855 21.0011 108.319 20.846 107.638 20.846H105.334V24.3542ZM105.334 29.776H107.822C108.346 29.776 108.8 29.6985 109.184 29.5433C109.568 29.3824 109.865 29.1612 110.074 28.8796C110.29 28.5923 110.397 28.2561 110.397 27.8711C110.397 27.4976 110.298 27.1757 110.1 26.9057C109.903 26.6298 109.623 26.4201 109.262 26.2764C108.901 26.127 108.471 26.0523 107.97 26.0523H105.334V29.776Z" fill="white"/>
<path d="M122.89 31.7758H121.118L121.048 30.388C120.734 30.8937 120.321 31.2816 119.809 31.5517C119.296 31.816 118.691 31.9482 117.993 31.9482C116.869 31.9482 115.982 31.6092 115.33 30.9311C114.684 30.2473 114.361 29.3077 114.361 28.1124V23.1561H116.509V27.7073C116.509 28.4256 116.692 28.9945 117.059 29.414C117.431 29.8278 117.934 30.0346 118.569 30.0346C119.227 30.0346 119.753 29.8134 120.149 29.3709C120.545 28.9284 120.743 28.3394 120.743 27.6039V23.1561H122.89V31.7758Z" fill="white"/>
<path d="M134.057 31.7758H132.162L132.049 30.5691C131.67 31 131.21 31.3391 130.669 31.5862C130.128 31.8275 129.54 31.9482 128.906 31.9482C128.085 31.9482 127.352 31.7528 126.706 31.3621C126.06 30.9713 125.55 30.4398 125.178 29.7674C124.811 29.0893 124.628 28.3222 124.628 27.4659C124.628 26.6097 124.811 25.8454 125.178 25.1731C125.55 24.495 126.06 23.9606 126.706 23.5698C127.352 23.1791 128.085 22.9837 128.906 22.9837C129.505 22.9837 130.061 23.09 130.573 23.3026C131.085 23.5152 131.531 23.814 131.909 24.1991V18.8462H134.057V31.7758ZM129.377 30.0433C129.843 30.0433 130.268 29.9398 130.652 29.7329C131.036 29.5203 131.341 29.2301 131.568 28.8623C131.795 28.4946 131.909 28.0751 131.909 27.6039V27.3022C131.909 26.8367 131.795 26.423 131.568 26.0609C131.341 25.6931 131.036 25.4058 130.652 25.1989C130.268 24.9863 129.843 24.88 129.377 24.88C128.888 24.88 128.452 24.9949 128.068 25.2248C127.683 25.4489 127.381 25.7564 127.16 26.1471C126.938 26.5321 126.828 26.9689 126.828 27.4573C126.828 27.9515 126.938 28.394 127.16 28.7848C127.381 29.1755 127.683 29.483 128.068 29.7071C128.452 29.9312 128.888 30.0433 129.377 30.0433Z" fill="white"/>
<path d="M145.214 31.7758H143.32L143.206 30.5691C142.828 31 142.368 31.3391 141.827 31.5862C141.285 31.8275 140.698 31.9482 140.063 31.9482C139.242 31.9482 138.509 31.7528 137.863 31.3621C137.217 30.9713 136.708 30.4398 136.335 29.7674C135.969 29.0893 135.785 28.3222 135.785 27.4659C135.785 26.6097 135.969 25.8454 136.335 25.1731C136.708 24.495 137.217 23.9606 137.863 23.5698C138.509 23.1791 139.242 22.9837 140.063 22.9837C140.663 22.9837 141.218 23.09 141.731 23.3026C142.243 23.5152 142.688 23.814 143.066 24.1991V18.8462H145.214V31.7758ZM140.535 30.0433C141 30.0433 141.425 29.9398 141.809 29.7329C142.193 29.5203 142.499 29.2301 142.726 28.8623C142.953 28.4946 143.066 28.0751 143.066 27.6039V27.3022C143.066 26.8367 142.953 26.423 142.726 26.0609C142.499 25.6931 142.193 25.4058 141.809 25.1989C141.425 24.9863 141 24.88 140.535 24.88C140.046 24.88 139.609 24.9949 139.225 25.2248C138.841 25.4489 138.538 25.7564 138.317 26.1471C138.096 26.5321 137.985 26.9689 137.985 27.4573C137.985 27.9515 138.096 28.394 138.317 28.7848C138.538 29.1755 138.841 29.483 139.225 29.7071C139.609 29.9312 140.046 30.0433 140.535 30.0433Z" fill="white"/>
<path d="M151.578 36.0857H149.282L151.098 31.7413L146.768 23.1561H149.186L152.12 29.3192L154.704 23.1561H157L151.578 36.0857Z" fill="white"/>
</svg>
