<svg width="23" height="23" viewBox="0 0 23 23" fill="none" xmlns="http://www.w3.org/2000/svg">
<rect width="23" height="23" rx="2" fill="#EEEEEE"/>
<path d="M16.5 9.3335V10.7335C16.2067 10.6935 15.8733 10.6735 15.5 10.6668V9.3335C15.5 7.2335 14.9067 5.8335 12 5.8335C9.09333 5.8335 8.5 7.2335 8.5 9.3335V10.6668C8.12667 10.6735 7.79333 10.6935 7.5 10.7335V9.3335C7.5 7.40016 7.96667 4.8335 12 4.8335C16.0333 4.8335 16.5 7.40016 16.5 9.3335Z" fill="#3A3A3A"/>
<path d="M16.4999 10.7332C16.2066 10.6932 15.8733 10.6732 15.4999 10.6665H8.49992C8.12659 10.6732 7.79325 10.6932 7.49992 10.7332C5.79992 10.9398 5.33325 11.7732 5.33325 13.9998V15.3332C5.33325 17.9998 5.99992 18.6665 8.66658 18.6665H15.3333C17.9999 18.6665 18.6666 17.9998 18.6666 15.3332V13.9998C18.6666 11.7732 18.1999 10.9398 16.4999 10.7332ZM9.80658 15.1398C9.67992 15.2598 9.50659 15.3332 9.33325 15.3332C9.24659 15.3332 9.15992 15.3132 9.07992 15.2798C8.99325 15.2465 8.92658 15.1998 8.85992 15.1398C8.73992 15.0132 8.66658 14.8398 8.66658 14.6665C8.66658 14.5798 8.68658 14.4932 8.71992 14.4132C8.75325 14.3332 8.79992 14.2598 8.85992 14.1932C8.92658 14.1332 8.99325 14.0865 9.07992 14.0532C9.32659 13.9465 9.61992 14.0065 9.80658 14.1932C9.86659 14.2598 9.91325 14.3332 9.94659 14.4132C9.97992 14.4932 9.99992 14.5798 9.99992 14.6665C9.99992 14.8398 9.92659 15.0132 9.80658 15.1398ZM12.6133 14.9198C12.5799 14.9998 12.5333 15.0732 12.4733 15.1398C12.3466 15.2598 12.1733 15.3332 11.9999 15.3332C11.8199 15.3332 11.6533 15.2598 11.5266 15.1398C11.4666 15.0732 11.4199 14.9998 11.3866 14.9198C11.3533 14.8398 11.3333 14.7532 11.3333 14.6665C11.3333 14.4865 11.4066 14.3198 11.5266 14.1932C11.7733 13.9465 12.2199 13.9465 12.4733 14.1932C12.5933 14.3198 12.6666 14.4865 12.6666 14.6665C12.6666 14.7532 12.6466 14.8398 12.6133 14.9198ZM15.1399 15.1398C15.0133 15.2598 14.8399 15.3332 14.6666 15.3332C14.4933 15.3332 14.3199 15.2598 14.1933 15.1398C14.0733 15.0132 13.9999 14.8465 13.9999 14.6665C13.9999 14.4865 14.0733 14.3198 14.1933 14.1932C14.4466 13.9465 14.8933 13.9465 15.1399 14.1932C15.1666 14.2265 15.1933 14.2598 15.2199 14.2998C15.2466 14.3332 15.2666 14.3732 15.2799 14.4132C15.2999 14.4532 15.3133 14.4932 15.3199 14.5332C15.3266 14.5798 15.3333 14.6265 15.3333 14.6665C15.3333 14.8398 15.2599 15.0132 15.1399 15.1398Z" fill="#3A3A3A"/>
</svg>
