<svg width="24" height="20" viewBox="0 0 24 20" fill="none" xmlns="http://www.w3.org/2000/svg">
<path d="M4.20007 20H0.600075C0.268762 20 0 19.7313 0 19.3999V15.7999C0 15.4686 0.268706 15.1999 0.600075 15.1999C0.931443 15.1999 1.19992 15.4686 1.19992 15.7999V18.7999H4.20007C4.53138 18.7999 4.79992 19.0686 4.79992 19.3999C4.79992 19.7313 4.53144 20 4.20007 20ZM4.20007 2.00002H1.19992V4.99994C1.19992 5.33125 0.931443 5.60001 0.600075 5.60001C0.268706 5.60001 0 5.33131 0 4.99994V1.39994C0 1.06863 0.268706 0.799866 0.600075 0.799866H4.20007C4.53138 0.799866 4.79992 1.06857 4.79992 1.39994C4.79992 1.73131 4.53144 2.00002 4.20007 2.00002ZM23.4 20H19.8C19.4687 20 19.1999 19.7313 19.1999 19.3999C19.1999 19.0686 19.4686 18.7999 19.8 18.7999H22.7999V15.7999C22.7999 15.4686 23.0686 15.1999 23.4 15.1999C23.7313 15.1999 24.0001 15.4686 24.0001 15.7999V19.3999C24.0001 19.7312 23.7313 20 23.4 20ZM23.4 5.60001C23.0687 5.60001 22.7999 5.33131 22.7999 4.99994V2.00002H19.8C19.4687 2.00002 19.1999 1.73131 19.1999 1.39994C19.1999 1.06857 19.4686 0.799866 19.8 0.799866H23.4C23.7313 0.799866 24.0001 1.06857 24.0001 1.39994V4.99994C24.0001 5.33125 23.7313 5.60001 23.4 5.60001ZM4.20007 16.4C3.86876 16.4 3.6 16.1313 3.6 15.7999V4.99994C3.6 4.66862 3.8687 4.39986 4.20007 4.39986C4.53144 4.39986 4.79992 4.66857 4.79992 4.99994V15.7999C4.79992 16.1312 4.53144 16.4 4.20007 16.4ZM6.59992 16.4H7.80007C8.13138 16.4 8.39992 16.1313 8.39992 15.7999V4.99994C8.39992 4.66862 8.13144 4.39986 7.80007 4.39986H6.59992C6.26861 4.39986 6.00007 4.66857 6.00007 4.99994V15.7999C6.00007 16.1312 6.26855 16.4 6.59992 16.4ZM10.1999 16.4C9.8686 16.4 9.60007 16.1313 9.60007 15.7999V4.99994C9.60007 4.66862 9.86855 4.39986 10.1999 4.39986C10.5313 4.39986 10.8 4.66857 10.8 4.99994V15.7999C10.8 16.1312 10.5313 16.4 10.1999 16.4ZM12.6 16.4H13.7999C14.1312 16.4 14.4 16.1313 14.4 15.7999V4.99994C14.4 4.66862 14.1313 4.39986 13.7999 4.39986H12.6C12.2687 4.39986 11.9999 4.66857 11.9999 4.99994V15.7999C11.9999 16.1312 12.2686 16.4 12.6 16.4ZM16.2 16.4C15.8687 16.4 15.5999 16.1313 15.5999 15.7999V4.99994C15.5999 4.66862 15.8686 4.39986 16.2 4.39986C16.5314 4.39986 16.8001 4.66857 16.8001 4.99994V15.7999C16.8001 16.1312 16.5314 16.4 16.2 16.4ZM18.6001 16.4H19.8C20.1313 16.4 20.4001 16.1313 20.4001 15.7999V4.99994C20.4001 4.66862 20.1314 4.39986 19.8 4.39986H18.6001C18.2687 4.39986 18 4.66857 18 4.99994V15.7999C18 16.1312 18.2687 16.4 18.6001 16.4Z" fill="white"/>
</svg>
