<svg width="20" height="20" viewBox="0 0 20 20" fill="none" xmlns="http://www.w3.org/2000/svg">
<g clip-path="url(#clip0_105_826)">
<path fill-rule="evenodd" clip-rule="evenodd" d="M10.4688 10.6406V6.79626C10.4688 6.67194 10.4194 6.55272 10.3315 6.46481C10.2435 6.3769 10.1243 6.32751 10 6.32751C9.87568 6.32751 9.75645 6.3769 9.66854 6.46481C9.58064 6.55272 9.53125 6.67194 9.53125 6.79626V10.6406C9.53125 10.765 9.58064 10.8842 9.66854 10.9721C9.75645 11.06 9.87568 11.1094 10 11.1094C10.1243 11.1094 10.2435 11.06 10.3315 10.9721C10.4194 10.8842 10.4688 10.765 10.4688 10.6406Z" fill="#FD4C1A"/>
<path fill-rule="evenodd" clip-rule="evenodd" d="M9.76575 10.235L7.20263 11.7144C7.10175 11.7799 7.02985 11.8816 7.00176 11.9985C6.97366 12.1154 6.99153 12.2387 7.05166 12.3428C7.11179 12.447 7.2096 12.5241 7.32491 12.5582C7.44023 12.5923 7.56424 12.5809 7.67138 12.5263L10.2345 11.0469C10.342 10.9845 10.4205 10.8821 10.4527 10.7621C10.4849 10.642 10.4683 10.5141 10.4064 10.4063C10.344 10.2987 10.2416 10.2203 10.1215 10.1882C10.0014 10.1561 9.87344 10.1729 9.76575 10.235ZM12.6551 9.6319L8.8795 17.1838C8.77217 17.3981 8.72143 17.6364 8.73213 17.8759C8.74282 18.1153 8.81459 18.3481 8.9406 18.552C9.06662 18.756 9.2427 18.9243 9.4521 19.041C9.66151 19.1577 9.89728 19.2189 10.137 19.2188H17.6889C17.9286 19.2188 18.1643 19.1576 18.3737 19.0409C18.5831 18.9242 18.7592 18.7559 18.8853 18.552C19.0113 18.3481 19.0832 18.1154 19.094 17.8759C19.1048 17.6364 19.0542 17.3982 18.947 17.1838L15.1708 9.6319C15.054 9.3983 14.8744 9.20184 14.6523 9.06453C14.4301 8.92722 14.1741 8.85449 13.9129 8.85449C13.6518 8.85449 13.3958 8.92722 13.1736 9.06453C12.9514 9.20184 12.7719 9.3983 12.6551 9.6319ZM13.872 16.5288C13.9965 16.5289 14.1158 16.5785 14.2037 16.6667C14.2916 16.7548 14.3409 16.8743 14.3408 16.9988C14.3406 17.1233 14.291 17.2426 14.2028 17.3305C14.1147 17.4184 13.9952 17.4677 13.8708 17.4675C13.8091 17.4674 13.7481 17.4552 13.6912 17.4316C13.6343 17.4079 13.5826 17.3732 13.539 17.3296C13.4511 17.2415 13.4018 17.122 13.402 16.9975C13.4022 16.873 13.4518 16.7537 13.5399 16.6658C13.6281 16.5779 13.7475 16.5286 13.872 16.5288ZM13.4033 12.4663V15.5956C13.4033 15.72 13.4526 15.8392 13.5405 15.9271C13.6285 16.015 13.7477 16.0644 13.872 16.0644C13.9963 16.0644 14.1156 16.015 14.2035 15.9271C14.2914 15.8392 14.3408 15.72 14.3408 15.5956V12.4663C14.3408 12.342 14.2914 12.2227 14.2035 12.1348C14.1156 12.0469 13.9963 11.9975 13.872 11.9975C13.7477 11.9975 13.6285 12.0469 13.5405 12.1348C13.4526 12.2227 13.4033 12.342 13.4033 12.4663Z" fill="#FD4C1A"/>
<path fill-rule="evenodd" clip-rule="evenodd" d="M8.11626 18.9994C7.91855 18.6626 7.80807 18.2818 7.79487 17.8915C7.78166 17.5012 7.86614 17.1138 8.04063 16.7644L8.43063 15.9844C5.77563 15.2894 3.81438 12.8719 3.81438 10C3.81438 6.58626 6.58626 3.81438 10 3.81438C13.2556 3.81438 15.9275 6.33563 16.1681 9.53001L18.3388 13.8719C18.9032 12.6593 19.1949 11.3376 19.1931 10C19.1931 4.92626 15.0738 0.806885 10 0.806885C4.92626 0.806885 0.806885 4.92626 0.806885 10C0.806885 14.4281 3.94501 18.1294 8.11626 18.9994Z" fill="#FD4C1A"/>
</g>
<defs>
<clipPath id="clip0_105_826">
<rect width="20" height="20" fill="white"/>
</clipPath>
</defs>
</svg>
