<svg width="18" height="18" viewBox="0 0 18 18" fill="none" xmlns="http://www.w3.org/2000/svg">
<g clip-path="url(#clip0_105_817)">
<path d="M14.3969 3.72656H9.29925C8.8624 3.72656 8.50823 4.08073 8.50823 4.51758C8.50823 4.95443 8.8624 5.30859 9.29925 5.30859H14.3969C14.8338 5.30859 15.1879 4.95443 15.1879 4.51758C15.1879 4.08073 14.8338 3.72656 14.3969 3.72656ZM1.40625 16.3773V17.0915C1.40625 17.3797 1.63986 17.6133 1.92807 17.6133H8.26724C8.55545 17.6133 8.78906 17.3797 8.78906 17.0915V16.3773C8.78906 16.0891 8.55545 15.8555 8.26724 15.8555H1.92807C1.63986 15.8555 1.40625 16.0891 1.40625 16.3773ZM0 13.5648V14.279C0 14.5672 0.233613 14.8008 0.521824 14.8008H6.86099C7.1492 14.8008 7.38281 14.5672 7.38281 14.279V13.5648C7.38281 13.2766 7.1492 13.043 6.86099 13.043H0.521824C0.233613 13.043 0 13.2766 0 13.5648ZM8.26724 10.2305H1.92807C1.63986 10.2305 1.40625 10.4641 1.40625 10.7523V11.4665C1.40625 11.7547 1.63986 11.9883 1.92807 11.9883H8.26724C8.55545 11.9883 8.78906 11.7547 8.78906 11.4665V10.7523C8.78906 10.4641 8.55545 10.2305 8.26724 10.2305ZM11.1119 9.25752C11.075 9.45366 11.1225 9.63643 11.2331 9.72313C11.2763 9.75705 11.3249 9.79024 11.377 9.82283V8.8303C11.2235 8.93763 11.1399 9.10948 11.1119 9.25752ZM12.2559 11.161V12.6541C12.5253 12.5087 12.6853 12.2402 12.7281 11.9858C12.7587 11.804 12.7712 11.3676 12.2559 11.161Z" fill="#9000FF"/>
<path d="M17.9797 12.5132C17.8217 11.1029 17.3598 9.71626 16.6438 8.50337C16.1687 7.69847 15.5958 6.98325 14.934 6.3633H8.76728C7.91969 7.15973 7.21446 8.1137 6.69165 9.1758H8.2618C9.13413 9.1758 9.84383 9.8855 9.84383 10.7578V11.461C9.84383 12.2739 9.22747 12.9452 8.43758 13.033V14.8108C9.16971 14.8922 9.75249 15.4749 9.83385 16.2071H14.656C15.6084 16.2071 16.519 15.7996 17.1543 15.0892C17.7834 14.3856 18.0842 13.4468 17.9797 12.5132ZM13.5949 12.1315C13.5279 12.5304 13.3271 12.9006 13.0298 13.1738C12.8074 13.3782 12.5447 13.518 12.256 13.5887V13.9219C12.256 14.1646 12.0593 14.3614 11.8166 14.3614C11.5738 14.3614 11.3771 14.1646 11.3771 13.9219V13.6298C11.0089 13.5994 10.706 13.5022 10.2751 13.2204C10.072 13.0875 10.015 12.8151 10.1479 12.612C10.2808 12.4089 10.5531 12.3519 10.7562 12.4848C11.0054 12.6478 11.1645 12.7174 11.3771 12.7457V10.8151C11.0855 10.682 10.8685 10.5542 10.6907 10.4147C10.3194 10.1234 10.1498 9.61765 10.2484 9.09477C10.3558 8.52453 10.7526 8.07088 11.2839 7.91085C11.3148 7.90155 11.3459 7.89285 11.3771 7.88473V7.59377C11.3771 7.35109 11.5739 7.15432 11.8166 7.15432C12.0593 7.15432 12.256 7.35109 12.256 7.59377V7.836C12.6969 7.90969 13.0082 8.1259 13.1584 8.2982C13.3178 8.48119 13.2987 8.75878 13.1158 8.91821C12.9336 9.07687 12.6578 9.05877 12.498 8.87821C12.4876 8.86755 12.4086 8.79102 12.256 8.73843V10.2256C12.3383 10.2561 12.4208 10.286 12.5035 10.3151C13.3044 10.5983 13.7328 11.3112 13.5949 12.1315ZM9.69842 2.6719H13.9979C14.3822 2.30507 14.6715 1.85037 14.8411 1.34693C14.9758 0.946815 14.6026 0.562628 14.1959 0.675936C13.4991 0.870034 12.745 0.793956 12.0931 0.447737C12.0176 0.40771 11.9335 0.38678 11.8482 0.38678C11.7628 0.38678 11.6787 0.40771 11.6033 0.447737C10.9514 0.793991 10.1972 0.870069 9.50039 0.675936C9.0937 0.562663 8.72055 0.946815 8.85524 1.34693C9.02482 1.85037 9.31418 2.30506 9.69842 2.6719Z" fill="#9000FF"/>
</g>
<defs>
<clipPath id="clip0_105_817">
<rect width="18" height="18" fill="white"/>
</clipPath>
</defs>
</svg>
