<svg width="18" height="18" viewBox="0 0 18 18" fill="none" xmlns="http://www.w3.org/2000/svg">
<path d="M15.0793 0C14.0498 0 13.2152 0.83461 13.2152 1.86416V7.42641H16.4162C16.7074 7.42641 16.9435 7.1903 16.9435 6.89906V1.86416C16.9435 0.83461 16.1089 0 15.0793 0ZM6.37592 13.2539C6.37592 10.0683 8.96733 7.44458 12.1956 7.45337V2.09131C12.1956 1.28914 12.4975 0.556277 12.9935 0H3.69241C2.23905 0 1.0564 1.18266 1.0564 2.63602V17.4632C1.0564 17.9376 1.63672 18.1706 1.96483 17.8277L2.63948 17.1232L3.3521 17.8362C3.55776 18.0418 3.89175 18.0418 4.09776 17.8362L4.77312 17.1612L5.45515 17.8376C5.66081 18.0415 5.99233 18.0415 6.198 17.8376L6.89093 17.1506L7.58421 17.8376C7.78952 18.0415 8.12069 18.0415 8.32636 17.8379L8.46065 17.705C7.15312 16.6119 6.37592 14.9954 6.37592 13.2539ZM5.32247 4.25391H6.36323V3.21314C6.36323 2.92191 6.59934 2.6858 6.89058 2.6858C7.18181 2.6858 7.41792 2.92191 7.41792 3.21314V4.25391H8.45869C8.74992 4.25391 8.98603 4.49002 8.98603 4.78125C8.98603 5.07248 8.74992 5.30859 8.45869 5.30859H7.41792V6.34936C7.41792 6.64059 7.18181 6.8767 6.89058 6.8767C6.59934 6.8767 6.36323 6.64059 6.36323 6.34936V5.30859H5.32247C5.03123 5.30859 4.79512 5.07248 4.79512 4.78125C4.79512 4.49002 5.03123 4.25391 5.32247 4.25391ZM3.72648 7.94707H7.27729C7.56853 7.94707 7.80464 8.18318 7.80464 8.47441C7.80464 8.76565 7.56853 9.00176 7.27729 9.00176H3.72648C3.43524 9.00176 3.19913 8.76565 3.19913 8.47441C3.19913 8.18318 3.43524 7.94707 3.72648 7.94707ZM5.48605 13.217H3.72296C3.43173 13.217 3.19562 12.9809 3.19562 12.6897C3.19562 12.3984 3.43173 12.1623 3.72296 12.1623H5.48605C5.77728 12.1623 6.01339 12.3984 6.01339 12.6897C6.01339 12.9809 5.77728 13.217 5.48605 13.217ZM5.83765 11.1111H3.72469C3.43345 11.1111 3.19734 10.875 3.19734 10.5838C3.19734 10.2926 3.43345 10.0564 3.72469 10.0564H5.83765C6.12888 10.0564 6.36499 10.2926 6.36499 10.5838C6.36499 10.875 6.12888 11.1111 5.83765 11.1111Z" fill="#77B00F"/>
<path d="M12.1768 8.50781C9.55976 8.50781 7.43066 10.6369 7.43066 13.2539C7.43066 15.8709 9.55976 18 12.1768 18C14.7938 18 16.9229 15.8709 16.9229 13.2539C16.9229 10.6369 14.7938 8.50781 12.1768 8.50781ZM12.7058 15.2848V15.335C12.7058 15.6262 12.4696 15.8623 12.1784 15.8623C11.8872 15.8623 11.6511 15.6262 11.6511 15.335V15.3261C11.4149 15.2698 11.1957 15.1767 11.0219 15.063C10.7782 14.9035 10.7099 14.5767 10.8693 14.333C11.0288 14.0892 11.3556 14.0209 11.5993 14.1804C11.8151 14.3216 12.1709 14.3752 12.3458 14.2929C12.4591 14.2396 12.5468 14.1258 12.559 14.0162C12.5851 13.7827 12.2193 13.6524 12.0008 13.5662C11.6703 13.4356 11.2589 13.2731 11.0201 12.842C10.6797 12.2275 10.9778 11.4172 11.6511 11.1401V11.1136C11.6511 10.8224 11.8872 10.5862 12.1784 10.5862C12.4668 10.5862 12.7007 10.8178 12.7053 11.1051C12.8951 11.1644 13.07 11.2593 13.21 11.3884C13.4241 11.5859 13.4376 11.9195 13.2401 12.1336C13.0426 12.3477 12.709 12.3611 12.4949 12.1637C12.4082 12.0836 12.1408 12.0514 12.0246 12.1294C11.9465 12.1819 11.9159 12.2825 11.9427 12.3308C12.054 12.5319 12.6373 12.6008 13.0787 12.9448C13.9803 13.6474 13.6666 14.9163 12.7058 15.2848Z" fill="#77B00F"/>
</svg>
