<svg width="24" height="24" viewBox="0 0 24 24" fill="none" xmlns="http://www.w3.org/2000/svg">
<path d="M18.75 19.5005H5.25C4.9425 19.5005 4.6875 19.2455 4.6875 18.938C4.6875 18.6305 4.9425 18.3755 5.25 18.3755H18.75C19.0575 18.3755 19.3125 18.6305 19.3125 18.938C19.3125 19.2455 19.0575 19.5005 18.75 19.5005Z" fill="#3A3A3A"/>
<path d="M17.2652 5.60926C15.8102 4.15426 14.3852 4.11676 12.8927 5.60926L11.9852 6.51676C11.9102 6.59176 11.8802 6.71176 11.9102 6.81676C12.4802 8.80426 14.0702 10.3943 16.0577 10.9643C16.0877 10.9718 16.1177 10.9793 16.1477 10.9793C16.2302 10.9793 16.3052 10.9493 16.3652 10.8893L17.2652 9.98176C18.0077 9.24676 18.3677 8.53426 18.3677 7.81426C18.3752 7.07176 18.0152 6.35176 17.2652 5.60926Z" fill="#3A3A3A"/>
<path d="M14.7075 11.6481C14.49 11.5431 14.28 11.4381 14.0775 11.3181C13.9125 11.2206 13.755 11.1156 13.5975 11.0031C13.47 10.9206 13.32 10.8006 13.1775 10.6806C13.1625 10.6731 13.11 10.6281 13.05 10.5681C12.8025 10.3581 12.525 10.0881 12.2775 9.78809C12.255 9.77309 12.2175 9.72059 12.165 9.65309C12.09 9.56309 11.9625 9.41309 11.85 9.24059C11.76 9.12809 11.655 8.96309 11.5575 8.79809C11.4375 8.59559 11.3325 8.39309 11.2275 8.18309C11.0898 7.88808 10.7026 7.80045 10.4724 8.03064L6.255 12.2481C6.1575 12.3456 6.06749 12.5331 6.04499 12.6606L5.63999 15.5331C5.56499 16.0431 5.7075 16.5231 6.0225 16.8456C6.2925 17.1081 6.66749 17.2506 7.07249 17.2506C7.16249 17.2506 7.2525 17.2431 7.3425 17.2281L10.2225 16.8231C10.3575 16.8006 10.545 16.7106 10.635 16.6131L14.8594 12.3887C15.085 12.1631 15.0002 11.7749 14.7075 11.6481Z" fill="#3A3A3A"/>
</svg>
